<svg version="1.0" xmlns="http://www.w3.org/2000/svg" width="346.667" height="346.667" viewBox="0 0 260 260"><path d="M0 31.6c0 29.3.1 31.6 1.7 31 1.6-.6 1.6-.6 0 1.2-2.1 2.3-2.5 17.6-.5 18.8.7.5.9.2.5-.9s-.2-1.4.9-1c2 .8 1.7 2.4-.6 3-2 .5-2 1.4-2 88.4V260h260V0H0v31.6zm36-21.1c0 .8-.4 1.5-1 1.5-.5 0-1-.7-1-1.5S34.5 9 35 9c.6 0 1 .7 1 1.5zm4 8.1c0 .8-1.9 1.3-2.4.6-.3-.5.1-.9.9-.9s1.5.2 1.5.3zm116.3 29.3c2.1.5 4.1 1.1 4.3 1.4.3.2-1.1 8-3.1 17.2-1.9 9.3-3.4 16.9-3.2 17.1.1.1 3.8.9 8.1 1.7 16.2 3.3 29.3 12 35.4 23.5 3.7 7 4.4 10.3 4.4 19.6-.1 17.5-8.3 34.1-22.2 45-10.8 8.5-23.5 13-39.9 14-4.6.3-8.5.7-8.6.8-.1.2-1 4.6-2.1 9.8l-1.9 9.5-14.6.3-14.7.3 1.9-8.3C103 187 103 187 96.8 187c-10.2 0-21.6-4.3-28.9-10.8-4.9-4.4-10-13-11.9-20.1-1.5-5.7-1.5-20.4.1-26.7 5.4-22.1 25.4-37.3 57.1-43.5l11.5-2.3 2.9-14.3 3-14.3h-2.5c-1.4 0-5.5.5-9.1 1-18.7 3-25.9 9.2-24.6 21.2L95 83h-4.3c-5.3 0-12.7-3.6-14.5-7-.8-1.5-1.1-4.7-.9-7.8.6-7.9 5.9-12.9 18.7-17.2 11.4-3.9 21-5 40.5-4.5 9.9.2 19.7.8 21.8 1.4zM75 79.5c0 .8-.4 1.5-1 1.5-.5 0-.7-.7-.4-1.5.4-.8.8-1.5 1-1.5.2 0 .4.7.4 1.5zm-9.3 1.7c-.2.7-.1 2 .4 2.9.5 1 .4 1.6-.5 1.6-.7 0-1.3-.7-1.2-1.6.1-.9-.5-1.5-1.1-1.4-1.4.3-1.7-.9-.6-2 1.1-1.2 3.5-.8 3 .5zM3.5 88c-.3.6.1 1.3.9 1.6.9.3 1.3 1.1.9 1.7-.4.6-1.1.3-2-.8-1.6-2.3-1.7-3.5-.2-3.5.5 0 .7.5.4 1z"/><path d="M113.5 96.9c-8 2.9-12.8 5.6-17.2 9.9-9.5 9.3-13.8 22.6-13.1 40.6.5 12.3 2.5 18 8.2 24 2.8 2.9 12 7.5 13 6.5.2-.2 2.5-10.3 5-22.4 2.5-12.1 6.3-30.6 8.6-41 2.2-10.5 4-19.1 4-19.3 0-.7-4.1.1-8.5 1.7zm36.7 4.3c-1.2 5.8-5.9 27.7-13.3 61.8-1.6 7.5-2.9 14-2.9 14.4 0 1.7 9.6-.4 15.7-3.4 10.9-5.4 19.9-17.8 23.9-33 2.2-8.5 2.2-22.1 0-28.8-2.8-8.2-10.7-15-19.6-16.8-2.4-.5-2.6-.2-3.8 5.8z"/></svg>